<svg xmlns="http://www.w3.org/2000/svg" viewBox="0 0 52.836 52.835"><path d="M31.729 39.812l16.3-16.311c.796-.797 6.142-4.756 4.492-6.407-2.61-2.612-5.611-7.147-9.041-8.572-.116-.048-.28-.052-.462-.025-.217-.023-.461 0-.688.095-1.663.69-2.749 2.159-4.009 3.42l-8.559 8.563c-1.131 1.133-2.847 3.58-3.561 2.866l-7.072-7.075c-2.021-2.021-6.85-9.541-10.431-7.354-1.473.9-10.241 8.553-8.462 10.334l24.395 24.408c2.304 2.307 5.847-2.689 7.098-3.942zM50.49 18.623c-.06.282-.215.586-.479.935.159-.312.318-.625.479-.935zm-1.054-2.056a472.342 472.342 0 00-3.842 7.499l-1.143 1.143a220.658 220.658 0 004.606-9.028c.136.135.261.263.379.386zm-2.008-2.121c.06.066.117.133.175.199a244.173 244.173 0 01-6.308 12.427c-.265.485-.328.457-.133-.06a180.355 180.355 0 012.423-6.003c.214-.509.62-1.306.906-1.777a652.16 652.16 0 012.937-4.786zm-5.451-4.348l-1.442 1.443c.457-.512.937-1.025 1.442-1.443zM5.2 21.76l-1.608-1.609a11.122 11.122 0 01-.657-.707c.108-.091.213-.206.3-.367a325.717 325.717 0 013.09-5.609c.147-.261.177-.391.12-.402C8.058 11.44 9.864 9.648 9.94 9.724l1.584 1.585c-2.043 3.3-4.061 6.616-6.148 9.883-.11.17-.158.368-.176.568zm2.772 2.773L6.259 22.82a.88.88 0 00.411-.337c2.108-3.248 4.129-6.561 6.164-9.864l1.105 1.106c-1.935 3.411-3.88 6.817-5.827 10.222-.1.173-.135.379-.14.586zm5.752 5.757c-1.189-1.188-2.377-2.379-3.565-3.567a.78.78 0 00.387-.34c1.936-3.415 3.851-6.845 5.806-10.244l3.356 3.358a557.717 557.717 0 01-4.85 8.618c-.332.527-.655 1.062-.979 1.595a1.21 1.21 0 00-.155.58zm2.908 2.91l-1.775-1.775a.795.795 0 00.389-.341l1.743-3.025a281.236 281.236 0 014.446-6.833l1.422 1.423a241.445 241.445 0 00-3.919 6.301c-.727 1.218-1.439 2.446-2.153 3.673a1.26 1.26 0 00-.153.577zm1.374 1.375l-.288-.288a.823.823 0 00.384-.345 400.702 400.702 0 015.034-8.469c.319-.52.643-1.036.967-1.554.05.051.103.098.154.147a7758.01 7758.01 0 01-6.086 9.933c-.106.175-.15.375-.165.576zm3.01 2.282a1.24 1.24 0 00-.142.586l-1.795-1.796a.858.858 0 00.397-.342c2.103-3.423 4.201-6.852 6.295-10.28.005-.009.006-.021.012-.03.305.055.63.03.979-.114.605-.25 1.133-.611 1.623-1.027a6.711 6.711 0 00-.46.717c-.914 1.702-1.837 3.4-2.771 5.088a238.65 238.65 0 01-3.106 5.426c-.35.588-.692 1.18-1.032 1.772zm2.073 2.804l-1.014-1.015a.82.82 0 00.425-.323c3.54-5.364 7.07-10.734 10.624-16.092.305-.46.376-.423.15.082a74.712 74.712 0 01-1.482 3.118c-2.732 4.625-5.54 9.199-8.521 13.664a1.244 1.244 0 00-.182.566zm1.505.747c3.532-4.942 6.854-10.023 9.556-15.415 2.942-4.989 5.817-10.022 8.758-15.017.786.506 1.54 1.202 2.266 1.957a103.493 103.493 0 01-2.152 5.687c-.864 1.67-1.754 3.33-2.649 4.984a853.57 853.57 0 00-9.339 16.034c-1.156 1.155-2.312 2.313-3.468 3.47-1.375 1.377-.907 1.122-2.246-.218-.386-.388-.773-.772-1.159-1.159a.91.91 0 00.433-.323z"/></svg>