<svg xmlns="http://www.w3.org/2000/svg" fill="none" viewBox="0 0 29 30">
    <path fill="#000" fill-rule="evenodd"
          d="M4.932 9.819c-.846 1.484-1.864 5.227.324 8.776 2.024 3.218 5.393 4.233 6.56 4.54l-.635 2.393C3.05 23.505-.778 16.914.882 10.27 2.362 5.036 8.192-.018 16.077.937 23 1.924 25.312 7.803 19.33 12.41c-3.052 2.477-6.9 3.736-11.938 4.018v-2.076c1.58-.113 6.415-.635 9.919-4.297 1.036-1.1 1.389-2.273.987-3.31-.497-1.283-2.052-2.181-3.867-2.23-3.764-.117-7.659 2.075-9.499 5.304Zm23.249 1.776c-.321-.662-.853-1.078-1.534-1.195-1.01-.13-1.753.546-2.468 1.195-.193.176-.384.35-.577.504-1.033.966-4.081 3.655-8.579 4.596l.515 2.059.43-.082c1.967-.37 5.262-.99 8.71-3.252-.417 4.747-4.36 6.936-7.448 7.793l.616 2.322c4.04-1.004 7.47-3.398 9.055-6.34 1.54-2.852 2.07-5.975 1.28-7.6ZM13.56 21.901l-1.104 7.49h4.114l-1.104-7.49H13.56Z"
          clip-rule="evenodd"/>
</svg>